<svg xmlns="http://www.w3.org/2000/svg" version="1.1" xmlns:xlink="http://www.w3.org/1999/xlink" xmlns:svgjs="http://svgjs.dev/svgjs" width="2048" height="1080" preserveAspectRatio="none" viewBox="0 0 2048 1080"><g mask="url(&quot;#SvgjsMask1411&quot;)" fill="none"><path d="M238.35 286.75L411.56 386.75L411.56 586.75L238.35 686.75L65.14 586.75L65.14 386.75zM411.56 -13.25L584.77 86.75L584.77 286.75L411.56 386.75L238.35 286.75L238.35 86.75zM411.56 586.75L584.77 686.75L584.77 886.75L411.56 986.75L238.35 886.75L238.35 686.75zM584.77 886.75L757.98 986.75L757.98 1186.75L584.77 1286.75L411.56 1186.75L411.56 986.75zM757.98 -13.25L931.19 86.75L931.19 286.75L757.98 386.75L584.77 286.75L584.77 86.75zM1277.61 286.75L1450.82 386.75L1450.82 586.75L1277.61 686.75L1104.4 586.75L1104.4 386.75zM1104.4 586.75L1277.61 686.75L1277.61 886.75L1104.4 986.75L931.19 886.75L931.19 686.75zM1104.4 1186.75L1277.61 1286.75L1277.61 1486.75L1104.4 1586.75L931.19 1486.75L931.19 1286.75zM1450.82 -13.25L1624.03 86.75L1624.03 286.75L1450.82 386.75L1277.61 286.75L1277.61 86.75zM1624.03 286.75L1797.24 386.75L1797.24 586.75L1624.03 686.75L1450.82 586.75L1450.82 386.75zM1450.82 1186.75L1624.03 1286.75L1624.03 1486.75L1450.82 1586.75L1277.61 1486.75L1277.61 1286.75zM1970.45 286.75L2143.66 386.75L2143.66 586.75L1970.45 686.75L1797.24 586.75L1797.24 386.75zM1970.45 886.75L2143.66 986.75L2143.66 1186.75L1970.45 1286.75L1797.24 1186.75L1797.24 986.75zM1797.24 1186.75L1970.45 1286.75L1970.45 1486.75L1797.24 1586.75L1624.03 1486.75L1624.03 1286.75z" stroke="rgba(128, 0, 255, 1)" stroke-width="2"></path><path d="M58.94 -46.57L174.12 19.93L174.12 152.93L58.94 219.43L-56.24 152.93L-56.24 19.93zM289.31 -46.57L404.49 19.93L404.49 152.93L289.31 219.43L174.12 152.93L174.12 19.93zM404.49 152.93L519.68 219.43L519.68 352.43L404.49 418.93L289.31 352.43L289.31 219.43zM404.49 551.93L519.68 618.43L519.68 751.43L404.49 817.93L289.31 751.43L289.31 618.43zM634.86 551.93L750.05 618.43L750.05 751.43L634.86 817.93L519.68 751.43L519.68 618.43zM750.05 -46.57L865.23 19.93L865.23 152.93L750.05 219.43L634.86 152.93L634.86 19.93zM865.23 152.93L980.42 219.43L980.42 352.43L865.23 418.93L750.05 352.43L750.05 219.43zM865.23 551.93L980.42 618.43L980.42 751.43L865.23 817.93L750.05 751.43L750.05 618.43zM750.05 751.43L865.23 817.93L865.23 950.93L750.05 1017.43L634.86 950.93L634.86 817.93zM980.42 -46.57L1095.6 19.93L1095.6 152.93L980.42 219.43L865.23 152.93L865.23 19.93zM1095.6 950.93L1210.79 1017.43L1210.79 1150.43L1095.6 1216.93L980.42 1150.43L980.42 1017.43zM1210.79 -46.57L1325.97 19.93L1325.97 152.93L1210.79 219.43L1095.6 152.93L1095.6 19.93zM1325.97 950.93L1441.16 1017.43L1441.16 1150.43L1325.97 1216.93L1210.79 1150.43L1210.79 1017.43zM1556.34 152.93L1671.53 219.43L1671.53 352.43L1556.34 418.93L1441.16 352.43L1441.16 219.43zM1441.16 751.43L1556.34 817.93L1556.34 950.93L1441.16 1017.43L1325.97 950.93L1325.97 817.93zM1556.34 950.93L1671.53 1017.43L1671.53 1150.43L1556.34 1216.93L1441.16 1150.43L1441.16 1017.43zM1671.53 -46.57L1786.71 19.93L1786.71 152.93L1671.53 219.43L1556.34 152.93L1556.34 19.93zM1786.71 152.93L1901.89 219.43L1901.89 352.43L1786.71 418.93L1671.53 352.43L1671.53 219.43zM1786.71 950.93L1901.89 1017.43L1901.89 1150.43L1786.71 1216.93L1671.53 1150.43L1671.53 1017.43zM1901.89 -46.57L2017.08 19.93L2017.08 152.93L1901.89 219.43L1786.71 152.93L1786.71 19.93zM2017.08 152.93L2132.26 219.43L2132.26 352.43L2017.08 418.93L1901.89 352.43L1901.89 219.43zM2017.08 551.93L2132.26 618.43L2132.26 751.43L2017.08 817.93L1901.89 751.43L1901.89 618.43zM1901.89 751.43L2017.08 817.93L2017.08 950.93L1901.89 1017.43L1786.71 950.93L1786.71 817.93zM2017.08 950.93L2132.26 1017.43L2132.26 1150.43L2017.08 1216.93L1901.89 1150.43L1901.89 1017.43z" stroke="rgba(0, 191, 255, 1)" stroke-width="2"></path></g><defs><mask id="SvgjsMask1411"><rect width="2048" height="1080" fill="#ffffff"></rect></mask></defs></svg>